HIERARCHY
ROOT hip
{
  OFFSET -0.322492 90.3521 0.23896
  CHANNELS 6 Xposition Yposition Zposition Zrotation Xrotation Yrotation
  JOINT abdomen
  {
    OFFSET 0 7.2397 0
    CHANNELS 6 Xposition Yposition Zposition Zrotation Xrotation Yrotation
    JOINT chest
    {
      OFFSET 0 16.546 0
      CHANNELS 6 Xposition Yposition Zposition Zrotation Xrotation Yrotation
      JOINT neck
      {
        OFFSET 0 34.2149 0
        CHANNELS 6 Xposition Yposition Zposition Zrotation Xrotation Yrotation
        JOINT head
        {
          OFFSET 0 6.2923 0
          CHANNELS 6 Xposition Yposition Zposition Zrotation Xrotation Yrotation
          End Site
          {
            OFFSET 0 21.2161 0
          }
        }
      }
      JOINT lCollar
      {
        OFFSET 4.0639 26.6115 -1.1234
        CHANNELS 6 Xposition Yposition Zposition Zrotation Xrotation Yrotation
        JOINT lShldr
        {
          OFFSET 14.1772 0 0
          CHANNELS 6 Xposition Yposition Zposition Zrotation Xrotation Yrotation
          JOINT lForeArm
          {
            OFFSET 26.1234 0 0
            CHANNELS 6 Xposition Yposition Zposition Zrotation Xrotation Yrotation
            JOINT lHand
            {
              OFFSET 27.7188 0 0
              CHANNELS 6 Xposition Yposition Zposition Zrotation Xrotation Yrotation
              JOINT lThumb1
              {
                OFFSET 2.2979 -0.4685 1.8313
                CHANNELS 6 Xposition Yposition Zposition Zrotation Xrotation Yrotation
                JOINT lThumb2
                {
                  OFFSET 5.2953 0 0
                  CHANNELS 6 Xposition Yposition Zposition Zrotation Xrotation Yrotation
                  JOINT lThumb3
                  {
                    OFFSET 3.0181 0 0
                    CHANNELS 6 Xposition Yposition Zposition Zrotation Xrotation Yrotation
                    End Site
                    {
                      OFFSET 2.6294 0 0
                    }
                  }
                }
              }
              JOINT lIndex1
              {
                OFFSET 9.3793 0.2991 2.5924
                CHANNELS 6 Xposition Yposition Zposition Zrotation Xrotation Yrotation
                JOINT lIndex2
                {
                  OFFSET 4.3461 0 0
                  CHANNELS 6 Xposition Yposition Zposition Zrotation Xrotation Yrotation
                  JOINT lIndex3
                  {
                    OFFSET 2.1666 0 0
                    CHANNELS 6 Xposition Yposition Zposition Zrotation Xrotation Yrotation
                    End Site
                    {
                      OFFSET 2.2048 0 0
                    }
                  }
                }
              }
              JOINT lMid1
              {
                OFFSET 9.4769 0.8376 0.2947
                CHANNELS 6 Xposition Yposition Zposition Zrotation Xrotation Yrotation
                JOINT lMid2
                {
                  OFFSET 4.772 0 0
                  CHANNELS 6 Xposition Yposition Zposition Zrotation Xrotation Yrotation
                  JOINT lMid3
                  {
                    OFFSET 2.8722 0 0
                    CHANNELS 6 Xposition Yposition Zposition Zrotation Xrotation Yrotation
                    End Site
                    {
                      OFFSET 2.0959 0 0
                    }
                  }
                }
              }
              JOINT lRing1
              {
                OFFSET 8.6586 1.0176 -1.7016
                CHANNELS 6 Xposition Yposition Zposition Zrotation Xrotation Yrotation
                JOINT lRing2
                {
                  OFFSET 4.5461 0 0
                  CHANNELS 6 Xposition Yposition Zposition Zrotation Xrotation Yrotation
                  JOINT lRing3
                  {
                    OFFSET 2.506 0 0
                    CHANNELS 6 Xposition Yposition Zposition Zrotation Xrotation Yrotation
                    End Site
                    {
                      OFFSET 2.2023 0 0
                    }
                  }
                }
              }
              JOINT lPinky1
              {
                OFFSET 7.6901 0.6618 -3.9096
                CHANNELS 6 Xposition Yposition Zposition Zrotation Xrotation Yrotation
                JOINT lPinky2
                {
                  OFFSET 3.2119 0 0
                  CHANNELS 6 Xposition Yposition Zposition Zrotation Xrotation Yrotation
                  JOINT lPinky3
                  {
                    OFFSET 1.924 0 0
                    CHANNELS 6 Xposition Yposition Zposition Zrotation Xrotation Yrotation
                    End Site
                    {
                      OFFSET 1.7829 0 0
                    }
                  }
                }
              }
            }
          }
        }
      }
      JOINT rCollar
      {
        OFFSET -4.0677 26.6109 -1.1234
        CHANNELS 6 Xposition Yposition Zposition Zrotation Xrotation Yrotation
        JOINT rShldr
        {
          OFFSET -14.1772 0 0
          CHANNELS 6 Xposition Yposition Zposition Zrotation Xrotation Yrotation
          JOINT rForeArm
          {
            OFFSET -26.1234 0 0
            CHANNELS 6 Xposition Yposition Zposition Zrotation Xrotation Yrotation
            JOINT rHand
            {
              OFFSET -27.7188 0 0
              CHANNELS 6 Xposition Yposition Zposition Zrotation Xrotation Yrotation
              JOINT rThumb1
              {
                OFFSET -2.2979 -0.4684 1.8313
                CHANNELS 6 Xposition Yposition Zposition Zrotation Xrotation Yrotation
                JOINT rThumb2
                {
                  OFFSET -5.2953 0 0
                  CHANNELS 6 Xposition Yposition Zposition Zrotation Xrotation Yrotation
                  JOINT rThumb3
                  {
                    OFFSET -3.0181 0 0
                    CHANNELS 6 Xposition Yposition Zposition Zrotation Xrotation Yrotation
                    End Site
                    {
                      OFFSET -2.6294 0 0
                    }
                  }
                }
              }
              JOINT rIndex1
              {
                OFFSET -9.3793 0.2991 2.5924
                CHANNELS 6 Xposition Yposition Zposition Zrotation Xrotation Yrotation
                JOINT rIndex2
                {
                  OFFSET -4.3461 0 0
                  CHANNELS 6 Xposition Yposition Zposition Zrotation Xrotation Yrotation
                  JOINT rIndex3
                  {
                    OFFSET -2.1666 0 0
                    CHANNELS 6 Xposition Yposition Zposition Zrotation Xrotation Yrotation
                    End Site
                    {
                      OFFSET -2.2048 0 0
                    }
                  }
                }
              }
              JOINT rMid1
              {
                OFFSET -9.4769 0.8376 0.2947
                CHANNELS 6 Xposition Yposition Zposition Zrotation Xrotation Yrotation
                JOINT rMid2
                {
                  OFFSET -4.772 0 0
                  CHANNELS 6 Xposition Yposition Zposition Zrotation Xrotation Yrotation
                  JOINT rMid3
                  {
                    OFFSET -2.8722 0 0
                    CHANNELS 6 Xposition Yposition Zposition Zrotation Xrotation Yrotation
                    End Site
                    {
                      OFFSET -2.0959 0 0
                    }
                  }
                }
              }
              JOINT rRing1
              {
                OFFSET -8.6586 1.0176 -1.7016
                CHANNELS 6 Xposition Yposition Zposition Zrotation Xrotation Yrotation
                JOINT rRing2
                {
                  OFFSET -4.5461 0 0
                  CHANNELS 6 Xposition Yposition Zposition Zrotation Xrotation Yrotation
                  JOINT rRing3
                  {
                    OFFSET -2.506 0 0
                    CHANNELS 6 Xposition Yposition Zposition Zrotation Xrotation Yrotation
                    End Site
                    {
                      OFFSET -2.2023 0 0
                    }
                  }
                }
              }
              JOINT rPinky1
              {
                OFFSET -7.6901 0.6618 -3.9096
                CHANNELS 6 Xposition Yposition Zposition Zrotation Xrotation Yrotation
                JOINT rPinky2
                {
                  OFFSET -3.2119 0 0
                  CHANNELS 6 Xposition Yposition Zposition Zrotation Xrotation Yrotation
                  JOINT rPinky3
                  {
                    OFFSET -1.924 0 0
                    CHANNELS 6 Xposition Yposition Zposition Zrotation Xrotation Yrotation
                    End Site
                    {
                      OFFSET -1.7829 0 0
                    }
                  }
                }
              }
            }
          }
        }
      }
    }
  }
  JOINT lThigh
  {
    OFFSET 8.7379 -0.0029 0.0005
    CHANNELS 6 Xposition Yposition Zposition Zrotation Xrotation Yrotation
    JOINT lShin
    {
      OFFSET 0 -46.6676 0
      CHANNELS 6 Xposition Yposition Zposition Zrotation Xrotation Yrotation
      JOINT lFoot
      {
        OFFSET 0 -40.1476 0
        CHANNELS 6 Xposition Yposition Zposition Zrotation Xrotation Yrotation
        JOINT lToes
        {
          OFFSET 0 -8.8846 14.2294
          CHANNELS 6 Xposition Yposition Zposition Zrotation Xrotation Yrotation
          End Site
          {
            OFFSET 0 0 6.296
          }
        }
      }
    }
  }
  JOINT rThigh
  {
    OFFSET -8.7379 0.0029 -0.0005
    CHANNELS 6 Xposition Yposition Zposition Zrotation Xrotation Yrotation
    JOINT rShin
    {
      OFFSET 0 -46.6676 0
      CHANNELS 6 Xposition Yposition Zposition Zrotation Xrotation Yrotation
      JOINT rFoot
      {
        OFFSET 0 -40.1476 0
        CHANNELS 6 Xposition Yposition Zposition Zrotation Xrotation Yrotation
        JOINT rToes
        {
          OFFSET 0 -8.8846 14.2294
          CHANNELS 6 Xposition Yposition Zposition Zrotation Xrotation Yrotation
          End Site
          {
            OFFSET 0 0 6.296
          }
        }
      }
    }
  }
}
MOTION
Frames:	4
Frame Time:	0.0333333
-0.322492 90.3521 0.23896 -3.9875 -5.38795 -55.1675 -4.44089e-16 7.2397 -1.77636e-15 -0.0141925 3.65573 0.925032 -4.44089e-16 16.546 0 0.822718 9.17588 1.65215 0 34.2149 0 -3.05131 33.5672 6.65328 1.77636e-15 6.2923 1.42109e-14 -8.71368 -24.3601 33.4653 4.0639 26.6115 -1.1234 -0.813449 3.6095 -20.1805 14.1772 2.84217e-14 7.10543e-15 -69.5855 -12.0218 -10.9512 26.1234 0 0 -103.989 -3.80022 -90.4593 27.7188 0 0 -13.6136 -29.3757 -12.2312 2.2979 -0.4685 1.8313 37.184 70.9488 -65.3921 5.2953 1.42109e-14 0 -13.655 2.43915 4.2313 3.0181 0 0 40.575 -4.26209 10.4488 9.3793 0.2991 2.5924 -15.7189 8.2617 2.10857 4.3461 0 -7.10543e-15 -27.9756 -1.11868 5.59658 2.1666 7.10543e-15 0 -30.2284 -1.57777 5.42758 9.4769 0.8376 0.2947 -15.5574 6.19104 1.80127 4.772 0 0 -44.2331 -4.15798 10.4286 2.8722 0 -7.10543e-15 -38.4625 -3.11875 10.6456 8.6586 1.0176 -1.7016 -12.8095 4.05758 0.0154728 4.5461 0 -1.06581e-14 -68.2419 -4.98724 7.35473 2.506 0 0 -26.184 0.226356 12.1003 7.6901 0.6618 -3.9096 -1.6959 -16.7036 -0.578543 3.2119 0 -1.42109e-14 -48.2121 -6.75383 15.0249 1.924 -8.88178e-16 7.10543e-15 -25.7169 -1.9246 10.2066 -4.0677 26.6109 -1.1234 -3.34981 3.56175 16.9504 -14.1772 -5.68434e-14 0 53.3501 36.2384 14.7835 -26.1234 -7.10543e-15 0 27.1859 -10.4676 99.3188 -27.7188 3.55271e-15 0 19.8197 -6.15488 21.9247 -2.2979 -0.4684 1.8313 -92.2023 72.3373 115.748 -5.2953 -1.42109e-14 0 20.8059 -0.164349 -7.80923 -3.0181 0 -7.10543e-15 7.44353 -1.87409 -23.1505 -9.3793 0.2991 2.5924 -0.483219 -1.4043 -4.46204 -4.3461 4.44089e-15 -1.42109e-14 11.3885 0.0663604 -2.10807 -2.1666 1.77636e-15 -2.84217e-14 35.2115 -1.89994 -5.61246 -9.4769 0.8376 0.2947 -5.74451 -0.492507 -10.345 -4.772 4.88498e-15 0 99.6663 -15.9162 -13.533 -2.8722 -3.55271e-15 0 64.977 -7.76867 -13.6635 -8.6586 1.0176 -1.7016 4.03539 -11.2401 -9.54019 -4.5461 5.32907e-15 0 113.305 -9.33456 -6.15032 -2.506 0 0 71.4335 -4.52061 -7.13531 -7.6901 0.6618 -3.9096 -3.28621 -26.7809 -8.5992 -3.2119 0 0 88.1866 -18.3453 -18.9248 -1.924 -7.10543e-15 1.42109e-14 68.3113 -11.8989 -18.9734 8.7379 -0.0029 0.0005 16.0429 -17.2045 26.7436 0 -46.6676 0 2.43533 32.8604 14.5714 0 -40.1476 0 -8.06838 -1.37599 7.86046 0 -8.8846 14.2294 0.0001 1.2424e-17 7.95139e-16 -8.7379 0.0029 -0.0005 -20.9308 -11.711 -32.985 0 -46.6676 -7.10543e-15 -10.0055 42.0327 0.455321 0 -40.1476 1.77636e-15 11.4257 -16.2404 -3.0115 0 -8.8846 14.2294 7.95139e-16 -9.93923e-17 1.59028e-15 
-0.322746 90.3391 0.239087 -4.01914 -5.41036 -55.1682 0 7.2397 0 -0.0104428 3.63854 0.915109 -4.44089e-16 16.546 -8.88178e-16 0.829386 9.14145 1.63117 8.88178e-16 34.2149 0 -3.0319 33.5833 6.65079 -1.77636e-15 6.2923 1.42109e-14 -8.62436 -24.3319 33.5484 4.0639 26.6115 -1.1234 -0.709214 3.53183 -20.2485 14.1772 0 0 -69.6148 -12.0128 -10.8095 26.1234 -1.42109e-14 -1.77636e-15 -104.101 -3.81928 -90.4717 27.7188 0 7.10543e-15 -13.6695 -29.3511 -12.2985 2.2979 -0.4685 1.8313 37.184 70.9488 -65.3921 5.2953 0 -7.10543e-15 -13.655 2.43915 4.2313 3.0181 7.10543e-15 0 40.575 -4.26209 10.4488 9.3793 0.2991 2.5924 -15.7189 8.2617 2.10857 4.3461 0 0 -27.9756 -1.11868 5.59658 2.1666 7.10543e-15 7.10543e-15 -30.2284 -1.57777 5.42758 9.4769 0.8376 0.2947 -15.5574 6.19104 1.80127 4.772 0 7.10543e-15 -44.2331 -4.15798 10.4286 2.8722 0 -7.10543e-15 -38.4625 -3.11875 10.6456 8.6586 1.0176 -1.7016 -12.8095 4.05758 0.0154728 4.5461 0 1.06581e-14 -68.2419 -4.98724 7.35473 2.506 -7.10543e-15 0 -26.184 0.226356 12.1003 7.6901 0.6618 -3.9096 -1.6959 -16.7036 -0.578543 3.2119 0 7.10543e-15 -48.2121 -6.75383 15.0249 1.924 1.77636e-15 7.10543e-15 -25.7169 -1.9246 10.2066 -4.0677 26.6109 -1.1234 -3.46984 3.45911 17.0935 -14.1772 -2.84217e-14 3.55271e-15 53.4226 36.3172 14.6811 -26.1234 0 7.10543e-15 27.1914 -10.4678 99.3143 -27.7188 0 0 19.7024 -6.26291 22.003 -2.2979 -0.4684 1.8313 -92.2023 72.3373 115.748 -5.2953 0 7.10543e-15 20.8059 -0.164349 -7.80923 -3.0181 0 0 7.44353 -1.87409 -23.1505 -9.3793 0.2991 2.5924 -0.483219 -1.4043 -4.46204 -4.3461 -1.77636e-15 -1.42109e-14 11.3885 0.0663604 -2.10807 -2.1666 0 1.42109e-14 35.2115 -1.89994 -5.61246 -9.4769 0.8376 0.2947 -5.74451 -0.492507 -10.345 -4.772 0 0 99.6663 -15.9162 -13.533 -2.8722 -3.55271e-15 1.42109e-14 64.977 -7.76867 -13.6635 -8.6586 1.0176 -1.7016 4.03539 -11.2401 -9.54019 -4.5461 7.10543e-15 0 113.305 -9.33456 -6.15032 -2.506 3.55271e-15 -1.42109e-14 71.4335 -4.52061 -7.13531 -7.6901 0.6618 -3.9096 -3.28621 -26.7809 -8.5992 -3.2119 7.10543e-15 -1.42109e-14 88.1866 -18.3453 -18.9248 -1.924 0 1.42109e-14 68.3113 -11.8989 -18.9734 8.7379 -0.0029 0.0005 16.0517 -17.1936 26.7429 0 -46.6676 -7.10543e-15 2.44567 32.9174 14.556 0 -40.1476 0 -8.07858 -1.40315 7.85811 -8.88178e-16 -8.8846 14.2294 0.0001 0 7.95139e-16 -8.7379 0.0029 -0.0005 -20.9397 -11.6926 -32.9807 0 -46.6676 7.10543e-15 -10.0235 42.0767 0.474727 -3.55271e-15 -40.1476 0 11.433 -16.2641 -3.0079 0 -8.8846 14.2294 7.95139e-16 1.98785e-16 -1.59028e-15 
-0.323 90.3262 0.239214 -4.05077 -5.43277 -55.1689 -4.44089e-16 7.2397 0 -0.00669909 3.62135 0.905186 0 16.546 0 0.836029 9.10701 1.61019 -8.88178e-16 34.2149 1.77636e-15 -3.01249 33.5994 6.6483 0 6.2923 -1.42109e-14 -8.53509 -24.3036 33.6315 4.0639 26.6115 -1.1234 -0.605162 3.45422 -20.3166 14.1772 2.84217e-14 -3.55271e-15 -69.6441 -12.0036 -10.6677 26.1234 0 -1.77636e-15 -104.213 -3.83828 -90.4842 27.7188 0 7.10543e-15 -13.7254 -29.3265 -12.3658 2.2979 -0.4685 1.8313 37.184 70.9488 -65.3921 5.2953 0 7.10543e-15 -13.655 2.43915 4.2313 3.0181 1.42109e-14 0 40.575 -4.26209 10.4488 9.3793 0.2991 2.5924 -15.7189 8.2617 2.10857 4.3461 -1.42109e-14 0 -27.9756 -1.11868 5.59658 2.1666 7.10543e-15 0 -30.2284 -1.57777 5.42758 9.4769 0.8376 0.2947 -15.5574 6.19104 1.80127 4.772 -1.42109e-14 7.10543e-15 -44.2331 -4.15798 10.4286 2.8722 3.55271e-15 0 -38.4625 -3.11875 10.6456 8.6586 1.0176 -1.7016 -12.8095 4.05758 0.0154728 4.5461 0 3.55271e-15 -68.2419 -4.98724 7.35473 2.506 0 0 -26.184 0.226356 12.1003 7.6901 0.6618 -3.9096 -1.6959 -16.7036 -0.578543 3.2119 -1.42109e-14 -7.10543e-15 -48.2121 -6.75383 15.0249 1.924 6.21725e-15 -7.10543e-15 -25.7169 -1.9246 10.2066 -4.0677 26.6109 -1.1234 -3.58937 3.3566 17.2366 -14.1772 -2.84217e-14 -3.55271e-15 53.4955 36.3959 14.5785 -26.1234 7.10543e-15 0 27.1968 -10.468 99.3099 -27.7188 3.55271e-15 1.42109e-14 19.5854 -6.3708 22.0815 -2.2979 -0.4684 1.8313 -92.2023 72.3373 115.748 -5.2953 -1.42109e-14 7.10543e-15 20.8059 -0.164349 -7.80923 -3.0181 0 0 7.44353 -1.87409 -23.1505 -9.3793 0.2991 2.5924 -0.483219 -1.4043 -4.46204 -4.3461 8.88178e-16 0 11.3885 0.0663604 -2.10807 -2.1666 -1.77636e-15 -1.42109e-14 35.2115 -1.89994 -5.61246 -9.4769 0.8376 0.2947 -5.74451 -0.492507 -10.345 -4.772 4.44089e-16 -1.42109e-14 99.6663 -15.9162 -13.533 -2.8722 -3.55271e-15 0 64.977 -7.76867 -13.6635 -8.6586 1.0176 -1.7016 4.03539 -11.2401 -9.54019 -4.5461 -1.77636e-15 1.42109e-14 113.305 -9.33456 -6.15032 -2.506 -3.55271e-15 -2.84217e-14 71.4335 -4.52061 -7.13531 -7.6901 0.6618 -3.9096 -3.28621 -26.7809 -8.5992 -3.2119 -7.10543e-15 0 88.1866 -18.3453 -18.9248 -1.924 0 1.42109e-14 68.3113 -11.8989 -18.9734 8.7379 -0.0029 0.0005 16.0605 -17.1827 26.7422 -7.10543e-15 -46.6676 0 2.45604 32.9745 14.5406 0 -40.1476 0 -8.08879 -1.43031 7.85577 0 -8.8846 14.2294 0.0001 0 -7.95139e-16 -8.7379 0.0029 -0.0005 -20.9487 -11.6742 -32.9765 0 -46.6676 -7.10543e-15 -10.0415 42.1206 0.49416 3.55271e-15 -40.1476 -1.77636e-15 11.4402 -16.2878 -3.00429 0 -8.8846 14.2294 -7.95139e-16 0 1.59028e-15 
-0.322483 90.3123 0.238739 -4.08398 -5.456 -55.1706 0 7.2397 0 -0.00270935 3.60785 0.895176 0 16.546 8.88178e-16 0.843105 9.07997 1.58896 0 34.2149 -1.77636e-15 -2.99594 33.6147 6.64689 1.77636e-15 6.2923 1.42109e-14 -8.43767 -24.2889 33.7134 4.0639 26.6115 -1.1234 -0.505024 3.37963 -20.3845 14.1772 0 -3.55271e-15 -69.6703 -12.0014 -10.5333 26.1234 0 1.77636e-15 -104.316 -3.85296 -90.495 27.7188 -1.42109e-14 -7.10543e-15 -13.7795 -29.3107 -12.433 2.2979 -0.4685 1.8313 37.184 70.9488 -65.3921 5.2953 0 -7.10543e-15 -13.655 2.43915 4.2313 3.0181 -7.10543e-15 -1.42109e-14 40.575 -4.26209 10.4488 9.3793 0.2991 2.5924 -15.7189 8.2617 2.10857 4.3461 0 0 -27.9756 -1.11868 5.59658 2.1666 -7.10543e-15 0 -30.2284 -1.57777 5.42758 9.4769 0.8376 0.2947 -15.5574 6.19104 1.80127 4.772 -1.42109e-14 -7.10543e-15 -44.2331 -4.15798 10.4286 2.8722 0 7.10543e-15 -38.4625 -3.11875 10.6456 8.6586 1.0176 -1.7016 -12.8095 4.05758 0.0154728 4.5461 -1.42109e-14 3.55271e-15 -68.2419 -4.98724 7.35473 2.506 0 0 -26.184 0.226356 12.1003 7.6901 0.6618 -3.9096 -1.6959 -16.7036 -0.578543 3.2119 -1.42109e-14 0 -48.2121 -6.75383 15.0249 1.924 8.88178e-16 0 -25.7169 -1.9246 10.2066 -4.0677 26.6109 -1.1234 -3.71391 3.26011 17.3673 -14.1772 -2.84217e-14 -3.55271e-15 53.5593 36.4715 14.5033 -26.1234 0 0 27.2052 -10.4703 99.3009 -27.7188 0 1.42109e-14 19.4736 -6.47174 22.1561 -2.2979 -0.4684 1.8313 -92.2023 72.3373 115.748 -5.2953 0 0 20.8059 -0.164349 -7.80923 -3.0181 0 -7.10543e-15 7.44353 -1.87409 -23.1505 -9.3793 0.2991 2.5924 -0.483219 -1.4043 -4.46204 -4.3461 -8.88178e-16 0 11.3885 0.0663604 -2.10807 -2.1666 0 -1.42109e-14 35.2115 -1.89994 -5.61246 -9.4769 0.8376 0.2947 -5.74451 -0.492507 -10.345 -4.772 1.77636e-15 0 99.6663 -15.9162 -13.533 -2.8722 0 0 64.977 -7.76867 -13.6635 -8.6586 1.0176 -1.7016 4.03539 -11.2401 -9.54019 -4.5461 5.32907e-15 -2.84217e-14 113.305 -9.33456 -6.15032 -2.506 0 1.42109e-14 71.4335 -4.52061 -7.13531 -7.6901 0.6618 -3.9096 -3.28621 -26.7809 -8.5992 -3.2119 7.10543e-15 2.84217e-14 88.1866 -18.3453 -18.9248 -1.924 0 0 68.3113 -11.8989 -18.9734 8.7379 -0.0029 0.0005 16.0702 -17.1722 26.7416 0 -46.6676 -7.10543e-15 2.46709 33.0351 14.5253 1.77636e-15 -40.1476 -3.55271e-15 -8.09954 -1.45852 7.85336 8.88178e-16 -8.8846 14.2294 0.0001 1.2424e-17 -0 -8.7379 0.0029 -0.0005 -20.9582 -11.6566 -32.9721 0 -46.6676 7.10543e-15 -10.0609 42.1679 0.51554 0 -40.1476 -5.32907e-15 11.4473 -16.3127 -3.00064 3.55271e-15 -8.8846 14.2294 7.95139e-16 -1.98785e-16 -1.59028e-15 
